<?xml version="1.0" encoding="iso-8859-1"?>
<!-- Uploaded to: SVG Repo, www.svgrepo.com, Generator: SVG Repo Mixer Tools -->
<svg fill="#000000" height="800px" width="800px" version="1.1" id="Layer_1" xmlns="http://www.w3.org/2000/svg" xmlns:xlink="http://www.w3.org/1999/xlink" 
	 viewBox="0 0 512 512" xml:space="preserve">
<g>
	<g>
		<path d="M423.148,98.043h-57.192V73.532c0-4.513-3.657-8.17-8.17-8.17H30.978c-4.513,0-8.17,3.657-8.17,8.17v331.803
			l-7.234,65.112c-1.22,10.981,2.005,21.383,9.083,29.291C31.734,507.646,41.718,512,52.765,512h283.234
			c11.049,0,21.031-4.355,28.11-12.263c7.078-7.909,10.303-18.311,9.083-29.291l-7.236-65.112v-24.057h57.192
			c40.546,0,73.532-32.986,73.532-73.532v-136.17C496.68,131.028,463.694,98.043,423.148,98.043z M480.341,307.745h-0.002
			c0,31.535-25.657,57.191-57.191,57.191h-65.362c-4.513,0-8.17,3.657-8.17,8.17v32.681c0,0.301,0.017,0.604,0.05,0.902
			l7.286,65.562c0.701,6.299-1.082,12.19-5.019,16.589c-3.936,4.398-9.595,6.82-15.933,6.82H52.766
			c-6.338,0-11.996-2.423-15.932-6.82c-3.937-4.398-5.719-10.289-5.019-16.589l7.285-65.562c0.033-0.3,0.05-0.601,0.05-0.902V81.702
			h16.34v258.723c0,4.513,3.657,8.17,8.17,8.17c4.513,0,8.17-3.657,8.17-8.17V81.702h245.106v283.234H63.661
			c-4.513,0-8.17,3.657-8.17,8.17v32.681c0,4.513,3.657,8.17,8.17,8.17h261.447c4.513,0,8.17-3.657,8.17-8.17V81.702h16.34v24.511
			c0,4.513,3.657,8.17,8.17,8.17h65.362c31.535,0,57.191,25.657,57.191,57.191V307.745z M316.935,381.277v16.34H71.829v-16.34
			H316.935z"/>
	</g>
</g>
<g>
	<g>
		<path d="M423.148,130.723h-65.362c-4.513,0-8.17,3.657-8.17,8.17v201.532c0,4.513,3.657,8.17,8.17,8.17h65.362
			c22.526,0,40.851-18.325,40.851-40.851v-136.17C463.999,149.049,445.674,130.723,423.148,130.723z M447.658,307.745
			c0,13.515-10.996,24.511-24.511,24.511h-57.192V147.064h57.192c13.515,0,24.511,10.996,24.511,24.511V307.745z"/>
	</g>
</g>
<g>
	<g>
		<path d="M264.482,3.109c-4.167-1.73-8.948,0.252-10.675,4.422l-12.506,30.194c-1.727,4.169,0.253,8.948,4.422,10.675
			c1.022,0.425,2.081,0.624,3.123,0.624c3.206,0,6.247-1.9,7.551-5.046l12.506-30.194C270.632,9.615,268.652,4.836,264.482,3.109z"
			/>
	</g>
</g>
<g>
	<g>
		<path d="M147.463,37.725L134.957,7.531c-1.727-4.169-6.505-6.148-10.675-4.422c-4.169,1.727-6.149,6.506-4.422,10.675
			l12.506,30.194c1.303,3.147,4.344,5.046,7.551,5.046c1.041,0,2.101-0.201,3.123-0.624
			C147.21,46.673,149.191,41.894,147.463,37.725z"/>
	</g>
</g>
<g>
	<g>
		<path d="M194.382,0c-4.513,0-8.17,3.657-8.17,8.17v32.681c0,4.513,3.658,8.17,8.17,8.17c4.513,0,8.17-3.657,8.17-8.17V8.17
			C202.552,3.657,198.895,0,194.382,0z"/>
	</g>
</g>
</svg>