<?xml version="1.0" encoding="utf-8"?>
<svg fill="#000000" height="800px" width="800px" version="1.1" id="Layer_1" viewBox="0 0 512 512" stroke="#000000" xmlns="http://www.w3.org/2000/svg">
  <g id="SVGRepo_bgCarrier" stroke-width="0"/>
  <g id="SVGRepo_tracerCarrier" stroke-linecap="round" stroke-linejoin="round"/>
  <g id="SVGRepo_iconCarrier">
    <g>
      <g>
        <circle cx="137.195" cy="299.574" r="8.17"/>
      </g>
    </g>
    <g>
      <g>
        <circle cx="104.514" cy="179.745" r="8.17"/>
      </g>
    </g>
    <g>
      <g>
        <circle cx="251.578" cy="332.255" r="8.17"/>
      </g>
    </g>
    <g>
      <g>
        <circle cx="284.259" cy="364.936" r="8.17"/>
      </g>
    </g>
    <g>
      <g>
        <path d="M423.148,98.043h-57.192V73.532c0-4.513-3.657-8.17-8.17-8.17h-24.511V40.851C333.275,18.325,314.95,0,292.424,0 c-8.904,0-17.495,2.916-24.511,8.181C260.898,2.916,252.308,0,243.403,0c-8.904,0-17.495,2.916-24.511,8.181 C211.877,2.916,203.286,0,194.382,0s-17.495,2.916-24.511,8.181C162.856,2.916,154.265,0,145.361,0 c-8.904,0-17.495,2.916-24.511,8.181C113.835,2.916,105.244,0,96.339,0C73.814,0,55.488,18.325,55.488,40.851v24.511H30.978 c-4.513,0-8.17,3.657-8.17,8.17v331.803l-7.234,65.112c-1.22,10.981,2.005,21.383,9.083,29.291 C31.734,507.646,41.718,512,52.765,512h283.234c11.049,0,21.031-4.355,28.11-12.263c7.078-7.909,10.303-18.311,9.083-29.291 l-7.236-65.112v-24.057h57.192c40.546,0,73.532-32.986,73.532-73.532v-136.17C496.68,131.028,463.694,98.043,423.148,98.043z M71.829,40.851c0-13.515,10.996-24.511,24.511-24.511c7.024,0,13.725,3.028,18.383,8.311c1.551,1.758,3.783,2.766,6.128,2.766 s4.576-1.008,6.128-2.766c4.659-5.282,11.359-8.311,18.383-8.311c7.024,0,13.725,3.028,18.383,8.311 c1.551,1.758,3.783,2.766,6.128,2.766s4.576-1.008,6.128-2.766c4.659-5.282,11.359-8.311,18.383-8.311 c7.024,0,13.725,3.028,18.383,8.311c1.551,1.758,3.783,2.766,6.128,2.766s4.576-1.008,6.128-2.766 c4.659-5.282,11.359-8.311,18.383-8.311c7.024,0,13.725,3.028,18.383,8.311c1.551,1.758,3.783,2.766,6.128,2.766 s4.576-1.008,6.128-2.766c4.659-5.282,11.359-8.311,18.383-8.311c13.515,0,24.511,10.996,24.511,24.511v24.511h-24.511 c-4.513,0-8.17,3.657-8.17,8.17v81.702c0,4.506-3.665,8.17-8.17,8.17c-4.506,0-8.17-3.665-8.17-8.17V73.532 c0-4.513-3.657-8.17-8.17-8.17h-32.681c-4.513,0-8.17,3.657-8.17,8.17v147.064c0,4.506-3.665,8.17-8.17,8.17 c-4.506,0-8.17-3.665-8.17-8.17V73.532c0-4.513-3.657-8.17-8.17-8.17H71.829V40.851z M316.935,81.702v49.021h-16.34V81.702 H316.935z M251.573,81.702v49.021h-16.34V81.702H251.573z M71.829,81.702h114.383v49.021H71.829V81.702z M480.341,307.745h-0.002 c0,31.535-25.657,57.191-57.191,57.191h-65.362c-4.513,0-8.17,3.657-8.17,8.17v32.681c0,0.301,0.017,0.604,0.05,0.902 l7.286,65.562c0.701,6.299-1.082,12.19-5.019,16.589c-3.936,4.398-9.595,6.82-15.933,6.82H52.766 c-6.338,0-11.996-2.423-15.932-6.82c-3.937-4.398-5.719-10.289-5.019-16.589l7.285-65.562c0.033-0.3,0.05-0.601,0.05-0.902V81.702 h16.34v258.723c0,4.513,3.657,8.17,8.17,8.17c4.513,0,8.17-3.657,8.17-8.17V147.064h114.383v73.532 c0,13.515,10.996,24.511,24.511,24.511s24.511-10.996,24.511-24.511v-73.532h16.34v8.17c0,13.515,10.996,24.511,24.511,24.511 c13.515,0,24.511-10.996,24.511-24.511v-8.17h16.34v250.553H71.831v-24.511c0-4.513-3.657-8.17-8.17-8.17 c-4.513,0-8.17,3.657-8.17,8.17v32.681c0,4.513,3.657,8.17,8.17,8.17h261.447c4.513,0,8.17-3.657,8.17-8.17V81.702h16.34v24.511 c0,4.513,3.657,8.17,8.17,8.17h65.362c31.535,0,57.191,25.657,57.191,57.191V307.745z"/>
      </g>
    </g>
    <g>
      <g>
        <path d="M423.148,130.723h-65.362c-4.513,0-8.17,3.657-8.17,8.17v201.532c0,4.513,3.657,8.17,8.17,8.17h65.362 c22.526,0,40.851-18.325,40.851-40.851v-136.17C463.999,149.049,445.674,130.723,423.148,130.723z M447.658,307.745 c0,13.515-10.996,24.511-24.511,24.511h-57.192V147.064h57.192c13.515,0,24.511,10.996,24.511,24.511V307.745z"/>
      </g>
    </g>
  </g>
  <path style="stroke: rgb(0, 0, 0); fill: rgba(242, 142, 28, 0.91);" d="M 72.137 146.034 L 72.375 399.115 L 317.885 397.679 L 316.342 147.383 L 301.271 147.569 C 301.271 147.569 302.01 163.465 293.044 173.432 C 287.383 179.725 275.114 180.629 275.114 180.629 C 275.072 180.795 268.449 180.237 260.278 174.528 C 252.107 168.819 252.39 162.049 252.39 162.049 L 251.198 147.869 C 251.198 147.869 236.478 147.312 235.999 147.312 C 235.52 147.312 235.861 218.79 236.1 222.109 C 236.339 225.428 232.362 232.107 228.39 237.356 C 222.369 245.311 211.32 245.256 211.32 245.256 C 211.32 245.256 202.069 243.577 196.327 240.227 C 190.585 236.877 186.276 229.699 185.798 219.169 C 185.32 208.639 185.319 147.383 185.319 147.383 L 72.137 146.034 Z"/>
  <ellipse style="paint-order: stroke; fill: rgb(255, 255, 255); stroke: rgba(0, 0, 0, 0);" cx="104.134" cy="179.306" rx="8.24" ry="8.038"/>
  <ellipse style="paint-order: stroke; fill: rgb(255, 255, 255); stroke: rgba(0, 0, 0, 0);" cx="136.781" cy="298.544" rx="8.24" ry="8.038"/>
  <ellipse style="paint-order: stroke; fill: rgb(255, 255, 255); stroke: rgba(0, 0, 0, 0);" cx="252.567" cy="330.609" rx="8.24" ry="8.038"/>
  <ellipse style="paint-order: stroke; fill: rgb(255, 255, 255); stroke: rgba(0, 0, 0, 0);" cx="284.025" cy="363.465" rx="8.24" ry="8.038"/>
</svg>